<svg width="0" height="0" class="hidden">
  <symbol fill="none" xmlns="http://www.w3.org/2000/svg" viewBox="0 0 27 27" id="Group 4">
    <g>
      <g id="huawei-app-badge-9757fa 2 copy">
        <g id="Group">
          <g id="Group_2">
            <g id="形状_1_拷贝_25_32_">
              <path id="Path" fill-rule="evenodd" clip-rule="evenodd" d="M18.776 0.0656128H7.42083C2.07203 0.0656128 0.115234 2.02241 0.115234 7.37121V18.7264C0.115234 24.0752 2.07203 26.032 7.42083 26.032H18.7728C24.1216 26.032 26.0816 24.0752 26.0816 18.7264V7.37121C26.0816 2.02241 24.1248 0.0656128 18.776 0.0656128Z" fill="white"></path>
            </g>
          </g>
        </g>
      </g>
      <g id="google-play">
        <path id="Path_2" d="M14.6599 12.6136L9.22374 17.8483C8.96917 17.6743 8.81803 17.3849 8.8207 17.0766V8.15058C8.81803 7.84226 8.96917 7.55288 9.22374 7.37891L14.6599 12.6136Z" fill="#2196F3"></path>
        <path id="Path_3" d="M16.5621 10.7852L14.6599 12.6136L9.22374 7.37892C9.24422 7.36304 9.26556 7.34827 9.28763 7.33468C9.57494 7.16054 9.93381 7.15492 10.2264 7.31993L16.5621 10.7852Z" fill="#4CAF50"></path>
        <path id="Path_4" d="M18.8674 12.6136C18.8709 12.9617 18.6818 13.2832 18.3758 13.4492L16.5621 14.4421L14.66 12.6136L16.5621 10.7852L18.3758 11.778C18.6818 11.944 18.8709 12.2655 18.8674 12.6136Z" fill="#FFC107"></path>
        <path id="Path_5" d="M16.5621 14.4421L10.2264 17.9073C9.93316 18.0697 9.57565 18.0641 9.28763 17.8925C9.26556 17.8789 9.24422 17.8642 9.22374 17.8483L14.66 12.6136L16.5621 14.4421Z" fill="#F44336"></path>
      </g>
    </g>
  </symbol>
  <symbol fill="none" xmlns="http://www.w3.org/2000/svg" viewBox="0 0 27 27" id="huawei-app-badge-9757fa 2">
    <g>
      <g id="Group">
        <g id="Group_2">
          <g id="形状_1_拷贝_25_32_">
            <path id="Path" fill-rule="evenodd" clip-rule="evenodd" d="M19.1761 0.0656128H7.82086C2.47206 0.0656128 0.515259 2.02241 0.515259 7.37121V18.7264C0.515259 24.0752 2.47206 26.032 7.82086 26.032H19.1729C24.5217 26.032 26.4817 24.0752 26.4817 18.7264V7.37121C26.4817 2.02241 24.5249 0.0656128 19.1761 0.0656128Z" fill="#BD1A2F"></path>
          </g>
          <path id="Shape" fill-rule="evenodd" clip-rule="evenodd" d="M9.53765 14.9952C9.53765 15.5472 9.26405 15.8416 8.76645 15.8416C8.26566 15.8416 7.99045 15.5376 7.99045 14.9712V13.0528H7.30085V14.9936C7.30085 15.9488 7.83206 16.496 8.75686 16.496C9.69126 16.496 10.2273 15.9376 10.2273 14.9648V13.0496H9.53926V14.9952H9.53765ZM5.65605 13.0512H6.34405V16.4464H5.65605V15.0672H4.10085V16.4464H3.41125V13.0512H4.10085V14.4208H5.65605V13.0512ZM16.7265 13.0512L17.4977 15.3856L18.2497 13.0528H18.9633L17.7825 16.4464H17.2081L16.4369 14.2176L15.6641 16.4464H15.0945L13.9105 13.0528H14.6433L15.3937 15.3856L16.1649 13.0512H16.7265ZM20.1985 14.9856H21.4513V14.368H20.1985V13.6736H22.0177V13.0544H19.5201V16.4448H22.0833V15.8256H20.1985V14.9856ZM23.5841 16.4416H22.9041V13.0512H23.5841V16.4416ZM11.5873 15.7376L11.2785 16.4448H10.5745L12.0705 13.0512H12.6785L14.1681 16.4448H13.4465L13.1409 15.7376H11.5873ZM12.8849 15.1264H11.8433L12.3633 13.912L12.8849 15.1264Z" fill="white"></path>
          <path id="Path_2" d="M13.4977 8.7296C11.1137 8.7296 9.17606 6.7904 9.17606 4.4064H9.78726C9.78726 6.4528 11.4529 8.1184 13.4993 8.1184C15.5457 8.1184 17.2113 6.4528 17.2113 4.4064H17.8225C17.8209 6.7904 15.8817 8.7296 13.4977 8.7296Z" fill="white"></path>
        </g>
      </g>
    </g>
  </symbol>
  <symbol fill="none" xmlns="http://www.w3.org/2000/svg" viewBox="0 0 18 16" id="koszyk">
    <g id="supermarket">
      <path id="Shape" fill-rule="evenodd" clip-rule="evenodd" d="M5.80023 10.6668H5.79941C5.50923 10.6675 5.27344 10.9064 5.27344 11.2C5.27344 11.494 5.51006 11.7333 5.80078 11.7333H15.3633C15.6546 11.7333 15.8906 11.9721 15.8906 12.2667C15.8906 12.5612 15.6546 12.8 15.3633 12.8H5.80078C4.92847 12.8 4.21875 12.0822 4.21875 11.2C4.21875 10.5435 4.61192 9.97833 5.17236 9.73194L3.26843 1.06667H0.527344C0.236069 1.06667 0 0.827917 0 0.533333C0 0.23875 0.236069 0 0.527344 0H3.69141C3.9386 0 4.15256 0.173611 4.20625 0.417639L4.58322 2.13333H17.4727C17.6381 2.13333 17.794 2.21194 17.8937 2.34556C17.9933 2.47917 18.0251 2.65222 17.9797 2.81319L15.8703 10.2799C15.8056 10.5087 15.5987 10.6667 15.3633 10.6667H5.80229L5.80023 10.6668ZM14.9654 9.6L16.7735 3.2H4.8175L6.22375 9.6H14.9654Z" fill="currentColor"></path>
      <path id="Shape_2" fill-rule="evenodd" clip-rule="evenodd" d="M6.85547 16C5.98315 16 5.27344 15.2822 5.27344 14.4C5.27344 13.5178 5.98315 12.8 6.85547 12.8C7.72778 12.8 8.4375 13.5178 8.4375 14.4C8.4375 15.2822 7.72778 16 6.85547 16ZM7.38281 14.4C7.38281 14.106 7.14619 13.8667 6.85547 13.8667C6.56474 13.8667 6.32812 14.106 6.32812 14.4C6.32812 14.694 6.56474 14.9333 6.85547 14.9333C7.14619 14.9333 7.38281 14.694 7.38281 14.4Z" fill="currentColor"></path>
      <path id="Shape_3" fill-rule="evenodd" clip-rule="evenodd" d="M14.3086 16C13.4363 16 12.7266 15.2822 12.7266 14.4C12.7266 13.5178 13.4363 12.8 14.3086 12.8C15.1809 12.8 15.8906 13.5178 15.8906 14.4C15.8906 15.2822 15.1809 16 14.3086 16ZM14.8359 14.4C14.8359 14.106 14.5993 13.8667 14.3086 13.8667C14.0179 13.8667 13.7812 14.106 13.7812 14.4C13.7812 14.694 14.0179 14.9333 14.3086 14.9333C14.5993 14.9333 14.8359 14.694 14.8359 14.4Z" fill="currentColor"></path>
    </g>
  </symbol>
  <symbol fill="none" xmlns="http://www.w3.org/2000/svg" viewBox="0 0 14 16" id="mojekonto">
    <g id="Group 2">
      <path id="Path_1313" fill-rule="evenodd" clip-rule="evenodd" d="M10.7162 3.8224C10.7162 5.93345 9.05239 7.6448 6.99997 7.6448C4.94756 7.6448 3.28375 5.93345 3.28375 3.8224C3.28375 1.71135 4.94756 0 6.99997 0C9.05239 0 10.7162 1.71135 10.7162 3.8224ZM9.60864 3.8216C9.60864 2.33971 8.4407 1.1384 6.99997 1.1384C6.30811 1.1384 5.64459 1.42109 5.15537 1.92429C4.66615 2.42749 4.39131 3.10997 4.39131 3.8216C4.39131 5.30349 5.55925 6.5048 6.99997 6.5048C8.4407 6.5048 9.60864 5.30349 9.60864 3.8216Z" fill="currentColor"></path>
      <path id="Path_1314" d="M1.10833 15.532C1.10833 12.1851 3.74612 9.47197 7 9.47197C10.2539 9.47197 12.8917 12.1851 12.8917 15.532H14C14 11.5555 10.866 8.33197 7 8.33197C3.13401 8.33197 0 11.5555 0 15.532H1.10833Z" fill="currentColor"></path>
    </g>
  </symbol>
  <symbol fill="none" xmlns="http://www.w3.org/2000/svg" viewBox="0 0 8 8" id="Oval Copy 2">
    <circle cx="4" cy="4" r="4" fill="#EFEFEF"></circle>
  </symbol>
  <symbol fill="none" xmlns="http://www.w3.org/2000/svg" viewBox="0 0 11 11" id="Oval Copy 5">
    <circle cx="5.5" cy="5.5" r="4.5" stroke="black" stroke-width="2"></circle>
  </symbol>
  <symbol fill="none" xmlns="http://www.w3.org/2000/svg" viewBox="0 0 16 12" id="zamow_ikona">
    <g id="Group 5">
      <path id="Path 41" fill-rule="evenodd" clip-rule="evenodd" d="M15 7.86446C15 7.86446 13.9306 8.1344 13.8104 9.28238C13.6902 10.4304 12.6138 11 12.6138 11H7.49899H3.11186C3.11186 11 2.42291 10.9255 2.15418 9.97062C1.88545 9.01577 2.10831 8.25 1 8.16086V7.66669H15V7.86446Z" stroke="currentColor" stroke-width="1.12"></path>
      <path id="Path 41 Copy" fill-rule="evenodd" clip-rule="evenodd" d="M15 1.19778C15 1.19778 13.9306 1.46771 13.8104 2.6157C13.6902 3.76368 12.6138 4.33333 12.6138 4.33333H7.49899H3.11186C3.11186 4.33333 2.42291 4.25879 2.15418 3.30393C1.88545 2.34908 2.10831 1.58331 1 1.49417V1H15V1.19778Z" stroke="currentColor" stroke-width="1.12"></path>
    </g>
  </symbol>
  <symbol fill="none" xmlns="http://www.w3.org/2000/svg" viewBox="0 0 27 26" id="App_Store_(iOS)">
    <g>
      <path id="Path" d="M21.0288 0H5.77118C2.91358 0 0.599976 2.3136 0.599976 5.1712V20.432C0.599976 23.2864 2.91358 25.6 5.77118 25.6H21.032C23.8864 25.6 26.2032 23.2864 26.2032 20.4288V5.1712C26.2 2.3136 23.8864 0 21.0288 0Z" fill="url(#paint0_linear)"/>
      <path id="Shape" fill-rule="evenodd" clip-rule="evenodd" d="M13.2912 5.88159L13.8096 4.98559C14.1296 4.42559 14.8432 4.23679 15.4032 4.55679C15.9632 4.87679 16.152 5.59039 15.832 6.15039L10.8368 14.7968H14.4496C15.6208 14.7968 16.2768 16.1728 15.768 17.1264H5.17597C4.52957 17.1264 4.01117 16.608 4.01117 15.9616C4.01117 15.3152 4.52957 14.7968 5.17597 14.7968H8.14557L11.9472 8.20799L10.76 6.14719C10.44 5.58719 10.6288 4.87999 11.1888 4.55359C11.7488 4.23359 12.456 4.42239 12.7824 4.98239L13.2912 5.88159ZM8.79837 18.3264L7.67837 20.2688C7.35837 20.8288 6.64477 21.0176 6.08477 20.6976C5.52477 20.3776 5.33597 19.664 5.65597 19.104L6.48797 17.664C7.42877 17.3728 8.19357 17.5968 8.79837 18.3264ZM21.4736 14.8032H18.4432C18.2113 14.4017 17.9883 14.0154 17.7741 13.6445C16.5784 11.5736 15.6582 9.97989 15.0096 8.86719C14.3216 9.43999 13.624 11.1296 14.6 12.8128C15.0232 13.5471 15.5417 14.4447 16.1548 15.5062C16.923 16.8362 17.8398 18.4233 18.904 20.2688C19.2304 20.8288 19.9376 21.0176 20.4976 20.6976C21.0576 20.3712 21.2464 19.664 20.9264 19.104L19.7904 17.1328H21.4736C22.12 17.1328 22.6384 16.6144 22.6384 15.968C22.6384 15.3216 22.12 14.8032 21.4736 14.8032Z" fill="white"/>
    </g>
    <defs>
      <linearGradient id="paint0_linear" x1="0.599976" y1="0" x2="0.599976" y2="25.6" gradientUnits="userSpaceOnUse">
        <stop stop-color="#18BFFB"/>
        <stop offset="1" stop-color="#2072F3"/>
      </linearGradient>
    </defs>
  </symbol>
  <symbol fill="none" xmlns="http://www.w3.org/2000/svg" viewBox="0 0 48 48" id="menu">
    <path d="M6 36v-3h36v3Zm0-10.5v-3h36v3ZM6 15v-3h36v3Z"/>
  </symbol>
</svg>